<svg width="37" height="40" viewBox="0 0 37 40" fill="none" xmlns="http://www.w3.org/2000/svg">
<path fill-rule="evenodd" clip-rule="evenodd" d="M15.5443 0.731765C17.2578 -0.243883 19.3712 -0.24396 21.0846 0.731765L33.8704 8.01289C35.5812 8.98753 36.6286 10.7828 36.6289 12.7179V27.2812C36.6286 29.2164 35.5814 31.0127 33.8704 31.9873L21.0846 39.2684C19.3713 40.2439 17.2576 40.2438 15.5443 39.2684L2.75853 31.9873C1.15426 31.0736 0.132992 29.4376 0.0115728 27.642L0 27.2812V12.7179C0.000251681 10.7827 1.04753 8.98748 2.75853 8.01289L15.5443 0.731765ZM18.3144 6.89138C10.9979 6.89138 5.03944 12.7467 5.03942 20.0001C5.03978 27.2532 10.9981 33.1078 18.3144 33.1078C25.6306 33.1076 31.5881 27.2531 31.5884 20.0001C31.5884 12.7468 25.6308 6.89156 18.3144 6.89138Z" fill="#F8F8F2"/>
<path d="M19.0426 12.6737C18.794 11.8999 17.6668 11.8991 17.4087 12.6734L17.3856 12.7533L16.9448 14.5911C16.4368 16.7096 14.909 18.4331 12.8817 19.1887L11.7583 19.6071C11.0407 19.8746 11.0025 20.8602 11.6896 21.1783L13.3445 21.9445C15.0965 22.7551 16.3936 24.3162 16.8735 26.2011L17.3454 28.0529L17.3689 28.1309C17.6407 28.9108 18.8057 28.8761 19.0167 28.0426L19.4728 26.236C19.9564 24.3236 21.2766 22.7344 23.0556 21.9099L24.709 21.1429C25.3795 20.8319 25.3695 19.8934 24.7146 19.5967L24.6496 19.57L23.5332 19.1631C21.4892 18.4173 19.9585 16.6814 19.4714 14.5426L19.0642 12.7541L19.0426 12.6737Z" fill="#F8F8F2"/>
</svg>