<svg width="276" height="53" viewBox="0 0 276 53" fill="none" xmlns="http://www.w3.org/2000/svg">
<path fill-rule="evenodd" clip-rule="evenodd" d="M20.5275 0.969589C22.7902 -0.323146 25.5811 -0.323247 27.8437 0.969589L44.7283 10.6171C46.9876 11.9085 48.3708 14.2872 48.3712 16.8512V36.1476C48.3708 38.7118 46.9879 41.0918 44.7283 42.3831L27.8437 52.0306C25.5813 53.3232 22.79 53.3231 20.5275 52.0306L3.64284 42.3831C1.52429 41.1725 0.175625 39.0048 0.0152827 36.6257L0 36.1476V16.8512C0.000332364 14.2871 1.38334 11.9084 3.64284 10.6171L20.5275 0.969589ZM24.1856 9.13107C14.5236 9.13107 6.65496 16.8894 6.65493 26.5001C6.6554 36.1105 14.5238 43.8678 24.1856 43.8678C33.8471 43.8675 41.7144 36.1103 41.7149 26.5001C41.7148 16.8895 33.8474 9.13132 24.1856 9.13107Z" fill="#F8F8F2"/>
<path fill-rule="evenodd" clip-rule="evenodd" d="M110.832 43.6172C111.12 43.6172 111.353 43.6657 111.53 43.7629C111.708 43.8582 111.847 43.9703 111.946 44.098C112.046 44.2255 112.123 44.3399 112.178 44.4371H112.246V43.6785H113.132V48.4607C113.132 48.8624 113.04 49.1944 112.854 49.4522C112.669 49.7095 112.418 49.9005 112.101 50.0243C111.787 50.1481 111.43 50.2108 111.034 50.2109C110.665 50.2108 110.346 50.1612 110.08 50.0638C109.816 49.9664 109.599 49.8372 109.431 49.677C109.264 49.5169 109.139 49.3403 109.056 49.1499L109.835 48.827L109.93 48.966C109.966 49.0132 110.007 49.061 110.052 49.1104C110.145 49.2116 110.27 49.2982 110.427 49.3692C110.587 49.4402 110.793 49.4753 111.043 49.4754C111.386 49.4753 111.671 49.3904 111.894 49.222C112.118 49.0555 112.229 48.7899 112.229 48.4252V47.5058H112.172C112.118 47.605 112.039 47.7155 111.936 47.8368C111.835 47.9585 111.695 48.0635 111.518 48.1528C111.341 48.242 111.11 48.2875 110.826 48.2877C110.459 48.2876 110.126 48.2015 109.831 48.0289C109.539 47.8543 109.307 47.5969 109.135 47.2579C108.966 46.9169 108.88 46.4966 108.88 45.9994C108.88 45.5022 108.964 45.0743 109.131 44.7191C109.301 44.364 109.534 44.092 109.829 43.9032C110.123 43.7125 110.458 43.6172 110.832 43.6172ZM111.026 44.3894C110.754 44.3894 110.526 44.4627 110.344 44.6047C110.162 44.7447 110.024 44.9366 109.931 45.1781C109.841 45.4194 109.795 45.6905 109.795 45.9885C109.795 46.2947 109.843 46.5649 109.935 46.7962C110.028 47.0267 110.164 47.2073 110.345 47.337C110.529 47.4669 110.758 47.5331 111.026 47.5331C111.286 47.5329 111.505 47.4705 111.685 47.3492C111.866 47.2255 112.005 47.0494 112.097 46.8207C112.192 46.5895 112.239 46.3109 112.239 45.9885C112.239 45.6742 112.194 45.3957 112.101 45.1563C112.009 44.9169 111.871 44.7291 111.692 44.5951C111.512 44.4594 111.29 44.3897 111.026 44.3894Z" fill="#F8F8F2"/>
<path d="M253.123 11.2777C253.404 11.2779 253.659 11.4384 253.774 11.6877L261.079 27.5612C261.333 28.1144 262.142 28.1057 262.385 27.5475L269.288 11.7013C269.4 11.445 269.659 11.278 269.944 11.2777H275.286C275.802 11.2777 276.147 11.7959 275.938 12.2556L261.125 44.6959C259.979 47.2036 257.428 48.8202 254.614 48.8202H250.159C249.766 48.8197 249.446 48.509 249.446 48.1256V43.7397C249.446 43.3564 249.766 43.0443 250.159 43.0437H252.281C253.956 43.0437 255.476 42.0913 256.172 40.6056L259.024 34.509H257.847C257.569 34.5086 257.317 34.3483 257.201 34.1018L246.917 12.2638C246.701 11.8033 247.047 11.2777 247.566 11.2777H253.123Z" fill="#F8F8F2"/>
<path fill-rule="evenodd" clip-rule="evenodd" d="M134.981 43.6172C135.417 43.6172 135.797 43.7176 136.122 43.9182C136.446 44.1191 136.699 44.4023 136.879 44.7654C137.058 45.1289 137.15 45.555 137.15 46.0403C137.15 46.5229 137.058 46.9459 136.879 47.307C136.699 47.6679 136.446 47.9492 136.122 48.1501C135.797 48.351 135.417 48.4524 134.981 48.4525C134.545 48.4525 134.164 48.351 133.839 48.1501C133.515 47.9492 133.261 47.6679 133.082 47.307C132.903 46.9459 132.812 46.5229 132.812 46.0403C132.812 45.555 132.902 45.1289 133.082 44.7654C133.262 44.4021 133.514 44.1191 133.839 43.9182C134.164 43.7173 134.545 43.6172 134.981 43.6172ZM134.984 44.3799C134.7 44.38 134.463 44.4554 134.275 44.6074C134.09 44.7596 133.951 44.962 133.86 45.2135C133.771 45.4632 133.727 45.7391 133.727 46.0375C133.727 46.3377 133.771 46.6135 133.86 46.863C133.951 47.1124 134.09 47.3121 134.275 47.4623C134.463 47.6123 134.7 47.6869 134.984 47.687C135.266 47.6869 135.5 47.6122 135.685 47.4623C135.871 47.3121 136.009 47.1124 136.098 46.863C136.189 46.6135 136.234 46.3377 136.234 46.0375C136.234 45.7391 136.189 45.4632 136.098 45.2135C136.009 44.962 135.871 44.7596 135.685 44.6074C135.5 44.4555 135.266 44.38 134.984 44.3799Z" fill="#F8F8F2"/>
<path fill-rule="evenodd" clip-rule="evenodd" d="M188.089 43.6172C188.351 43.6172 188.607 43.6594 188.853 43.7466C189.099 43.8338 189.32 43.9715 189.515 44.1579C189.711 44.3447 189.866 44.5894 189.979 44.888C190.092 45.1843 190.147 45.5454 190.148 45.9694V46.2936H186.844C186.851 46.578 186.904 46.8226 187.005 47.0264C187.116 47.2453 187.27 47.4133 187.467 47.529C187.665 47.6425 187.897 47.6991 188.161 47.6993C188.332 47.6993 188.491 47.6757 188.632 47.6271C188.773 47.5763 188.896 47.5002 188.999 47.401C189.101 47.3016 189.179 47.1777 189.233 47.0318L190.091 47.1885C190.022 47.4417 189.898 47.664 189.721 47.8545C189.546 48.043 189.324 48.1917 189.058 48.2972C188.794 48.4005 188.492 48.4523 188.154 48.4525C187.696 48.4524 187.3 48.3525 186.969 48.1556C186.64 47.9566 186.384 47.6783 186.205 47.3192C186.027 46.9581 185.939 46.5345 185.939 46.0498C185.939 45.5708 186.027 45.1472 186.205 44.7817C186.384 44.4162 186.637 44.1301 186.958 43.925C187.28 43.7204 187.657 43.6173 188.089 43.6172ZM188.095 44.3704C187.842 44.3704 187.62 44.4328 187.43 44.5583C187.243 44.682 187.095 44.8441 186.992 45.0446C186.904 45.2191 186.856 45.4089 186.845 45.6099H189.261C189.261 45.3704 189.212 45.1571 189.115 44.9724C189.018 44.7861 188.882 44.6386 188.707 44.5311C188.533 44.4237 188.329 44.3705 188.095 44.3704Z" fill="#F8F8F2"/>
<path fill-rule="evenodd" clip-rule="evenodd" d="M213.087 43.6172C213.522 43.6173 213.903 43.7176 214.228 43.9182C214.552 44.1191 214.805 44.4022 214.985 44.7654C215.164 45.1289 215.256 45.555 215.256 46.0403C215.255 46.5229 215.164 46.9459 214.985 47.307C214.805 47.6679 214.552 47.9492 214.228 48.1501C213.903 48.351 213.523 48.4524 213.087 48.4525C212.651 48.4524 212.268 48.3511 211.943 48.1501C211.619 47.9493 211.367 47.6676 211.188 47.307C211.008 46.9459 210.918 46.5229 210.918 46.0403C210.918 45.555 211.008 45.1289 211.188 44.7654C211.367 44.4024 211.619 44.1191 211.943 43.9182C212.268 43.7172 212.651 43.6172 213.087 43.6172ZM213.09 44.3799C212.805 44.38 212.569 44.4554 212.381 44.6074C212.196 44.7596 212.057 44.9619 211.966 45.2135C211.877 45.4632 211.831 45.7391 211.831 46.0375C211.831 46.3377 211.877 46.6135 211.966 46.863C212.057 47.1124 212.196 47.3121 212.381 47.4623C212.569 47.6123 212.805 47.6869 213.09 47.687C213.372 47.6869 213.607 47.6123 213.793 47.4623C213.978 47.3121 214.117 47.1123 214.205 46.863C214.296 46.6135 214.34 46.3376 214.34 46.0375C214.34 45.7392 214.296 45.4631 214.205 45.2135C214.117 44.962 213.978 44.7596 213.793 44.6074C213.607 44.4552 213.372 44.38 213.09 44.3799Z" fill="#F8F8F2"/>
<path fill-rule="evenodd" clip-rule="evenodd" d="M91.103 48.3571H90.218V47.6298H90.1444C90.09 47.7291 90.0094 47.8427 89.9068 47.9703C89.806 48.098 89.6659 48.2101 89.4886 48.3054C89.3111 48.4007 89.0804 48.4483 88.7981 48.4484C88.4231 48.4483 88.0881 48.3522 87.7936 48.1596C87.5009 47.9647 87.2707 47.6869 87.1031 47.3274C86.9377 46.9659 86.8545 46.5322 86.8544 46.0266C86.8545 45.5215 86.9373 45.0892 87.1045 44.73C87.274 44.3706 87.5074 44.0941 87.802 43.9032C88.0963 43.7128 88.4309 43.6173 88.8037 43.6172L89.0093 43.6253C89.2046 43.6433 89.368 43.69 89.4997 43.7629C89.6769 43.8581 89.8155 43.9704 89.9124 44.098C90.0111 44.2257 90.09 44.3398 90.1444 44.4371H90.1972V42.1189H91.103V48.3571ZM88.9968 44.3894C88.7249 44.3896 88.4974 44.4628 88.316 44.6047C88.1348 44.7467 87.9961 44.941 87.9034 45.1863C87.8128 45.4316 87.7687 45.709 87.7686 46.0171C87.7686 46.3299 87.8147 46.6131 87.9076 46.863C88.0004 47.1124 88.1387 47.3107 88.3202 47.4568C88.5035 47.6005 88.7291 47.6718 88.9968 47.672C89.257 47.672 89.4785 47.6042 89.6581 47.4663C89.8397 47.3263 89.9765 47.131 90.0694 46.8834C90.1642 46.6356 90.2125 46.3461 90.2125 46.0171C90.2124 45.6926 90.1648 45.4079 90.0721 45.1645C89.9793 44.9213 89.843 44.731 89.6637 44.5951C89.4841 44.4593 89.261 44.3894 88.9968 44.3894Z" fill="#F8F8F2"/>
<path d="M142.221 46.5456C142.221 46.8636 142.31 47.1184 142.485 47.307C142.66 47.4952 142.889 47.5901 143.168 47.5903C143.338 47.5903 143.508 47.5474 143.676 47.4623C143.845 47.377 143.986 47.2464 144.097 47.0741C144.209 46.9017 144.265 46.6815 144.263 46.4162V43.6785H145.17V48.3571H144.281V47.5481H144.233C144.126 47.7972 143.954 48.0056 143.719 48.1719C143.485 48.3363 143.191 48.4197 142.842 48.4198C142.544 48.4196 142.278 48.3527 142.049 48.2209C141.821 48.087 141.641 47.8886 141.51 47.6271C141.381 47.3653 141.317 47.04 141.316 46.6546V43.6785H142.221V46.5456Z" fill="#F8F8F2"/>
<path d="M178.826 46.5456C178.826 46.8636 178.913 47.1184 179.088 47.307C179.264 47.4953 179.492 47.59 179.772 47.5903C179.941 47.5903 180.112 47.5472 180.279 47.4623C180.448 47.3769 180.591 47.2464 180.701 47.0741C180.814 46.9017 180.869 46.6814 180.867 46.4162V43.6785H181.775V48.3571H180.885V47.5481H180.836C180.729 47.7972 180.558 48.0056 180.322 48.1719C180.088 48.3361 179.794 48.4197 179.445 48.4198C179.147 48.4196 178.882 48.3527 178.652 48.2209C178.425 48.087 178.246 47.8883 178.114 47.6271C177.985 47.3652 177.92 47.04 177.92 46.6546V43.6785H178.826V46.5456Z" fill="#F8F8F2"/>
<path d="M227.343 43.6785H228.297V44.4085H227.343V46.9842C227.343 47.1602 227.37 47.2926 227.422 47.3819C227.474 47.4689 227.541 47.5305 227.624 47.5631C227.708 47.5933 227.801 47.608 227.9 47.608C227.972 47.608 228.036 47.6031 228.09 47.593C228.144 47.5829 228.188 47.5746 228.218 47.5685L228.381 48.3217C228.328 48.3419 228.253 48.3629 228.157 48.383C228.061 48.4052 227.939 48.4177 227.794 48.4198C227.556 48.4238 227.333 48.3796 227.128 48.2904C226.922 48.201 226.754 48.063 226.627 47.8763C226.5 47.6896 226.436 47.4541 226.436 47.1721V44.4085H225.755V43.6785H226.436V42.5561H227.343V43.6785Z" fill="#F8F8F2"/>
<path d="M69.2918 42.928H66.3798V44.8294H69.014V45.6385H66.3798V48.3571H65.4434V42.1189H69.2918V42.928Z" fill="#F8F8F2"/>
<path d="M74.4296 48.3571H73.5237V43.6785H74.4296V48.3571Z" fill="#F8F8F2"/>
<path d="M81.3332 43.6294C81.5561 43.6546 81.7577 43.7184 81.9362 43.8187C82.1736 43.9506 82.3581 44.1474 82.4891 44.4085C82.6203 44.6704 82.6864 44.9967 82.6864 45.3824V48.3571H81.7806V45.4914C81.7806 45.1523 81.6922 44.8855 81.5166 44.6945C81.385 44.5504 81.2161 44.4608 81.0109 44.4249L80.7942 44.4058C80.5846 44.4058 80.3975 44.4523 80.2342 44.5434C80.0728 44.6347 79.9429 44.7686 79.848 44.9452C79.7553 45.1197 79.7092 45.3325 79.7091 45.5799V48.3571H78.8046V43.6785H79.673V44.4412H79.7313C79.8383 44.1934 80.0061 43.9936 80.2342 43.8433C80.4644 43.6931 80.7549 43.6172 81.104 43.6172L81.3332 43.6294Z" fill="#F8F8F2"/>
<path d="M96.4562 48.3571H95.5503V43.6785H96.4562V48.3571Z" fill="#F8F8F2"/>
<path d="M103.129 43.6172C103.446 43.6172 103.725 43.6848 103.963 43.8187C104.2 43.9507 104.386 44.1471 104.517 44.4085C104.648 44.6705 104.713 44.9966 104.713 45.3824V48.3571H103.807V45.4914C103.807 45.1522 103.72 44.8855 103.545 44.6945C103.369 44.502 103.127 44.4059 102.821 44.4058C102.611 44.4058 102.423 44.452 102.259 44.5434C102.098 44.6347 101.971 44.7689 101.876 44.9452C101.783 45.1197 101.737 45.3324 101.737 45.5799V48.3571H100.831V43.6785H101.701V44.4412H101.756C101.863 44.1937 102.032 43.9935 102.259 43.8433C102.489 43.693 102.78 43.6172 103.129 43.6172Z" fill="#F8F8F2"/>
<path d="M127.07 44.9547H127.138L128.758 42.1189H129.822L127.57 45.9081V48.3571H126.638V45.9081L124.387 42.1189H125.452L127.07 44.9547Z" fill="#F8F8F2"/>
<path d="M151.849 43.6144C151.927 43.6185 151.988 43.622 152.032 43.6281V44.5011C151.996 44.4911 151.931 44.4778 151.839 44.4657C151.747 44.4516 151.654 44.4467 151.561 44.4467C151.348 44.4467 151.156 44.4918 150.989 44.5829C150.824 44.6722 150.691 44.7972 150.594 44.9574C150.498 45.1158 150.449 45.2978 150.449 45.5009V48.3571H149.544V43.6785H150.421V44.4221H150.468C150.553 44.1706 150.702 43.9724 150.915 43.8283C151.131 43.6821 151.377 43.609 151.649 43.609C151.705 43.609 151.773 43.6104 151.849 43.6144Z" fill="#F8F8F2"/>
<path d="M167.831 42.928H165.894V48.3571H164.962V42.928H163.03V42.1189H167.831V42.928Z" fill="#F8F8F2"/>
<path d="M173.796 43.6144C173.874 43.6185 173.936 43.6221 173.98 43.6281V44.5011C173.943 44.4911 173.878 44.4778 173.787 44.4657C173.694 44.4516 173.601 44.4467 173.509 44.4467C173.295 44.4467 173.104 44.4917 172.936 44.5829C172.771 44.6722 172.639 44.7971 172.542 44.9574C172.445 45.1158 172.396 45.2979 172.396 45.5009V48.3571H171.491V43.6785H172.367V44.4221H172.415C172.5 44.1707 172.649 43.9724 172.863 43.8283C173.078 43.6824 173.323 43.6092 173.595 43.609C173.651 43.609 173.72 43.6104 173.796 43.6144Z" fill="#F8F8F2"/>
<path d="M205.696 46.7022H205.753V42.1189H206.678V48.3571H205.819L202.665 43.782H202.608V48.3571H201.672V42.1189H202.539L205.696 46.7022Z" fill="#F8F8F2"/>
<path d="M221.727 43.6144C221.804 43.6184 221.865 43.6221 221.909 43.6281V44.5011C221.873 44.4911 221.809 44.4777 221.717 44.4657C221.625 44.4516 221.532 44.4467 221.44 44.4467C221.226 44.4467 221.033 44.4917 220.866 44.5829C220.701 44.6722 220.568 44.7972 220.471 44.9574C220.374 45.1158 220.325 45.2979 220.325 45.5009V48.3571H219.422V43.6785H220.298V44.4221H220.346C220.431 44.1708 220.579 43.9724 220.792 43.8283C221.008 43.6821 221.253 43.6091 221.526 43.609C221.582 43.609 221.651 43.6104 221.727 43.6144Z" fill="#F8F8F2"/>
<path d="M233.446 44.4412H233.506C233.615 44.1896 233.781 43.9874 234.005 43.8392C234.229 43.6912 234.522 43.6173 234.883 43.6172L235.115 43.6294C235.339 43.6539 235.541 43.7158 235.719 43.8147C235.959 43.9466 236.145 44.1443 236.276 44.4058C236.409 44.6657 236.476 44.9927 236.476 45.3824V48.3571H235.569V45.4914C235.569 45.1484 235.483 44.8807 235.308 44.6918C235.132 44.5012 234.887 44.4059 234.574 44.4058C234.36 44.4058 234.167 44.452 233.998 44.5434C233.831 44.6347 233.699 44.769 233.602 44.9452C233.507 45.1196 233.46 45.3325 233.46 45.5799V48.3571H232.554V42.1189H233.446V44.4412Z" fill="#F8F8F2"/>
<path d="M73.9822 41.8683C74.1392 41.8684 74.2743 41.9218 74.3851 42.029C74.4976 42.1343 74.553 42.2634 74.5532 42.4131C74.5531 42.5609 74.4978 42.6911 74.3851 42.7986C74.2744 42.9037 74.1391 42.9564 73.9822 42.9566C73.8252 42.9566 73.6894 42.9035 73.5765 42.7986C73.4657 42.6911 73.4114 42.5611 73.4112 42.4131C73.4115 42.2632 73.4657 42.1344 73.5765 42.029C73.6895 41.9218 73.8251 41.8683 73.9822 41.8683Z" fill="#F8F8F2"/>
<path d="M96.0074 41.8683C96.1647 41.8683 96.3007 41.9216 96.4117 42.029C96.5242 42.1343 96.5795 42.2634 96.5798 42.4131C96.5796 42.561 96.5245 42.6911 96.4117 42.7986C96.3007 42.9039 96.1647 42.9566 96.0074 42.9566C95.8506 42.9564 95.7144 42.9036 95.6017 42.7986C95.4911 42.6911 95.4365 42.5609 95.4364 42.4131C95.4366 42.2634 95.4911 42.1343 95.6017 42.029C95.7145 41.9217 95.8504 41.8685 96.0074 41.8683Z" fill="#F8F8F2"/>
<path fill-rule="evenodd" clip-rule="evenodd" d="M109.749 10.9644C112.098 10.9645 114.213 11.5096 116.086 12.6043C117.989 13.6675 119.469 15.1527 120.519 17.0515C121.605 18.9558 122.142 21.1738 122.142 23.6929C122.142 26.2124 121.605 28.431 120.519 30.3357C119.438 32.2337 117.944 33.7347 116.042 34.8291L116.04 34.8305C114.284 35.8283 112.314 36.3538 110.14 36.4159L109.701 36.4227C107.352 36.4226 105.22 35.8953 103.315 34.8319L103.31 34.8278C101.44 33.733 99.9628 32.2325 98.8819 30.3357L98.8778 30.3289C97.828 28.3964 97.3064 26.1973 97.3064 23.7406C97.3065 21.2214 97.8442 19.0036 98.9292 17.0991C99.9423 15.2919 101.305 13.8602 103.014 12.8114L103.361 12.6057C105.266 11.5103 107.399 10.9644 109.749 10.9644ZM109.749 16.5325C108.698 16.5326 107.724 16.7989 106.823 17.3293C105.934 17.8535 105.211 18.6441 104.663 19.7198L104.662 19.7238C104.189 20.6266 103.914 21.7488 103.853 23.1004L103.84 23.6929C103.84 25.3127 104.121 26.6499 104.663 27.7151C105.212 28.792 105.919 29.5834 106.776 30.1069L107.117 30.2935C107.921 30.6997 108.781 30.9022 109.701 30.9023C110.786 30.9023 111.757 30.6366 112.622 30.1096L112.627 30.1069C113.517 29.5826 114.239 28.791 114.787 27.7151C115.33 26.6498 115.611 25.3129 115.611 23.6929C115.611 22.0729 115.329 20.7555 114.788 19.7238L114.783 19.7129C114.267 18.6409 113.561 17.852 112.674 17.3293L112.67 17.3266C111.913 16.8658 111.076 16.6028 110.152 16.5448L109.749 16.5325Z" fill="#F8F8F2"/>
<path fill-rule="evenodd" clip-rule="evenodd" d="M234.724 10.9644C237.024 10.9645 239.006 11.3605 240.658 12.1698C242.309 12.9478 243.575 14.0898 244.44 15.5886C245.227 16.8758 245.663 18.3915 245.76 20.1229L245.781 20.8789V35.171C245.78 35.5516 245.465 35.86 245.078 35.8602H240.857C240.509 35.8601 240.212 35.61 240.161 35.2718L239.798 32.8487C239.795 32.8461 239.784 32.8401 239.765 32.8364C239.746 32.8328 239.727 32.8336 239.714 32.8378C239.703 32.8414 239.698 32.8477 239.694 32.8528C239.486 33.1395 239.253 33.4133 239.001 33.6768L239.002 33.6782C238.503 34.234 237.92 34.7264 237.257 35.1492L237.246 35.156C236.578 35.5495 235.813 35.8551 234.959 36.0809L234.961 36.0822C234.232 36.2823 233.421 36.3926 232.531 36.4173L232.144 36.4227C230.132 36.4227 228.431 36.0898 227.061 35.4012C225.703 34.7185 224.677 33.7979 224.002 32.6376C223.334 31.4901 223 30.2422 223 28.9014C223 27.3407 223.398 25.9718 224.207 24.8125L224.211 24.8071C224.949 23.7937 225.977 22.9917 227.28 22.3962L227.857 22.1538C229.44 21.5076 231.367 21.1922 233.625 21.1921H239.338C239.309 20.1278 239.138 19.2593 238.844 18.5756L238.842 18.5715C238.519 17.7915 238.027 17.2278 237.371 16.8635C236.79 16.5414 236.048 16.3518 235.13 16.3091L234.724 16.2996C233.474 16.2996 232.429 16.5825 231.572 17.1332L231.565 17.1386C230.802 17.6035 230.298 18.3046 230.06 19.2716C229.985 19.5766 229.709 19.8176 229.366 19.8178H224.413C223.998 19.8178 223.661 19.4601 223.724 19.0401L223.828 18.4571C224.111 17.1223 224.656 15.9475 225.464 14.9416C226.459 13.6736 227.767 12.7027 229.377 12.0255C231.017 11.3176 232.801 10.9644 234.724 10.9644ZM234.246 25.5399C233.159 25.5399 232.28 25.6769 231.601 25.9376L231.589 25.943C230.91 26.1748 230.46 26.5105 230.195 26.9264C229.916 27.3659 229.771 27.8805 229.771 28.4792C229.772 29.0782 229.916 29.5724 230.19 29.9761L230.299 30.1259C230.568 30.4612 230.938 30.7306 231.419 30.9295C231.971 31.1576 232.641 31.2768 233.434 31.2769C234.317 31.2768 235.079 31.1267 235.726 30.8383C236.412 30.5153 236.991 30.0773 237.466 29.5239L237.467 29.5225C237.983 28.9266 238.376 28.2717 238.648 27.5598C238.891 26.9238 239.06 26.2504 239.161 25.5399H234.246ZM239.413 21.5299L239.48 21.5095C239.492 21.5047 239.501 21.4964 239.512 21.4904C239.482 21.5072 239.449 21.5228 239.413 21.5299ZM239.676 21.2916C239.679 21.2818 239.684 21.2717 239.686 21.2616L239.687 21.2521C239.685 21.2654 239.68 21.2788 239.676 21.2916Z" fill="#F8F8F2"/>
<path d="M71.3411 2.33438C71.5759 2.33453 71.7971 2.44903 71.9274 2.64084L87.2837 25.2756V3.02358C87.2838 2.64266 87.5987 2.33438 87.9867 2.33438H93.0175C93.4054 2.33457 93.7205 2.64278 93.7206 3.02358V35.171C93.7203 35.5516 93.4053 35.86 93.0175 35.8602H87.8214C87.5869 35.86 87.3681 35.7439 87.2379 35.5524L71.8802 12.9653V35.171C71.8799 35.5515 71.5662 35.8599 71.1785 35.8602H66.1464C65.7584 35.8602 65.4436 35.5518 65.4434 35.171V3.02358C65.4435 2.64266 65.7583 2.33438 66.1464 2.33438H71.3411Z" fill="#F8F8F2"/>
<path d="M140.426 10.9808C140.752 11.04 140.994 11.3239 140.994 11.655V16.9234C140.994 17.304 140.679 17.6124 140.291 17.6126H138.635C137.711 17.6127 136.837 17.7324 136.012 17.9722L135.999 17.9763C135.188 18.183 134.487 18.5362 133.893 19.0319L133.892 19.0333C133.343 19.4873 132.895 20.1367 132.561 21.0015L132.559 21.0055C132.272 21.7247 132.104 22.6292 132.066 23.7269L132.058 24.2091V35.171C132.058 35.5517 131.743 35.8601 131.355 35.8602H126.324C125.936 35.8602 125.621 35.5518 125.621 35.171V12.2175C125.621 11.8367 125.936 11.5283 126.324 11.5283H130.773C131.128 11.5287 131.429 11.7893 131.472 12.1358L131.83 15.1637C131.83 15.1637 131.839 15.1718 131.852 15.1745C131.866 15.1775 131.88 15.1758 131.888 15.1732C131.894 15.1711 131.899 15.1673 131.902 15.1623C132.257 14.6635 132.652 14.2071 133.086 13.7934L133.533 13.393C134.427 12.6145 135.468 12.016 136.651 11.5964L136.654 11.595C137.771 11.2096 138.983 11.0008 140.283 10.9685L140.426 10.9808Z" fill="#F8F8F2"/>
<path d="M149.947 5.28869C150.335 5.28879 150.65 5.59722 150.65 5.9779V11.5283H156.494C156.882 11.5283 157.196 11.8367 157.197 12.2175V16.2656C157.197 16.6465 156.882 16.9548 156.494 16.9548H150.65V27.587C150.65 28.7358 150.899 29.4391 151.295 29.8113C151.742 30.1684 152.529 30.3861 153.74 30.3861H156.35C156.738 30.3863 157.053 30.6947 157.053 31.0753V35.171C157.053 35.5516 156.738 35.8599 156.35 35.8602H152.592C150.932 35.8602 149.466 35.6041 148.203 35.0825L148.199 35.0811C146.947 34.5493 145.967 33.6662 145.262 32.4482C144.552 31.2202 144.212 29.5899 144.212 27.587V11.8729C144.212 9.79405 144.684 6.78517 144.837 5.86212C144.893 5.52671 145.189 5.28904 145.528 5.28869H149.947Z" fill="#F8F8F2"/>
<path d="M166.19 1.39455C166.578 1.39455 166.893 1.70295 166.893 2.08376V14.3015C166.896 14.3049 166.907 14.3136 166.925 14.3192C166.944 14.3249 166.962 14.3247 166.975 14.3219C166.985 14.3195 166.99 14.3156 166.994 14.311C167.714 13.4541 168.592 12.7428 169.62 12.1794C171.046 11.3668 172.652 10.9645 174.426 10.9644C176.448 10.9644 178.186 11.3805 179.622 12.2311L179.886 12.3905C181.192 13.2077 182.185 14.3826 182.867 15.9005C183.628 17.4922 184.002 19.4703 184.002 21.8173V35.171C184.002 35.5514 183.687 35.8597 183.299 35.8602H178.315C177.927 35.8601 177.612 35.5517 177.612 35.171V22.3336C177.611 20.3444 177.175 18.8862 176.354 17.9082L176.35 17.9028C175.575 16.9458 174.368 16.44 172.659 16.4399C171.574 16.4399 170.603 16.7058 169.738 17.2326L169.731 17.2367C168.871 17.7317 168.181 18.4635 167.667 19.4433L167.664 19.4473C167.22 20.2681 166.963 21.2708 166.905 22.4657L166.893 22.9901V35.171C166.893 35.5518 166.578 35.8602 166.19 35.8602H161.159C160.771 35.8601 160.456 35.5517 160.456 35.171V2.08376C160.456 1.703 160.771 1.39463 161.159 1.39455H166.19Z" fill="#F8F8F2"/>
<path fill-rule="evenodd" clip-rule="evenodd" d="M191.426 11.5283C191.748 11.5286 192.03 11.7443 192.108 12.0513L196.137 27.9575L200.656 12.0336C200.741 11.7357 201.018 11.5287 201.333 11.5283H207.203C207.518 11.5283 207.796 11.7346 207.881 12.0323L212.437 27.9534L216.477 12.0513C216.555 11.7441 216.836 11.5283 217.159 11.5283H222.102C222.571 11.5287 222.907 11.9708 222.775 12.4123L215.911 35.3658C215.823 35.6587 215.547 35.8599 215.236 35.8602H209.837C209.525 35.8599 209.251 35.6573 209.163 35.3631L204.292 18.7663L199.423 35.3631C199.336 35.6576 199.06 35.86 198.748 35.8602H193.35C193.039 35.8601 192.763 35.6588 192.675 35.3658L185.809 12.4123C185.677 11.9706 186.015 11.5283 186.484 11.5283H191.426ZM212.152 28.1591C212.155 28.1634 212.16 28.1672 212.163 28.1714C212.147 28.152 212.132 28.1313 212.12 28.1073L212.152 28.1591ZM195.847 28.1537C195.85 28.1591 195.856 28.1634 195.86 28.1686C195.845 28.1481 195.829 28.1258 195.817 28.1005L195.847 28.1537Z" fill="#F8F8F2"/>
<path d="M25.1472 16.7927C24.8188 15.7674 23.3303 15.7663 22.9895 16.7922L22.959 16.8981L22.3768 19.3333C21.706 22.1402 19.6884 24.4238 17.0112 25.425L15.5277 25.9794C14.5801 26.3338 14.5296 27.6398 15.4369 28.0612L17.6224 29.0764C19.936 30.1505 21.6489 32.2189 22.2827 34.7164L22.9059 37.1701L22.9369 37.2734C23.2959 38.3069 24.8343 38.2609 25.1129 37.1565L25.7153 34.7627C26.3538 32.2288 28.0973 30.1231 30.4467 29.0306L32.63 28.0144C33.5155 27.6023 33.5023 26.3587 32.6375 25.9656L32.5516 25.9303L31.0773 25.3911C28.3781 24.4029 26.3567 22.1029 25.7134 19.269L25.1757 16.8991L25.1472 16.7927Z" fill="#F8F8F2"/>
</svg>
